Altinn-DIN-Bold.ufo
<glyph name="parenleft" format="2">
  <advance width="317"/>
  <unicode hex="0028"/>
  <outline>
    <contour>
      <point x="46" y="336" type="curve" smooth="yes"/>
      <point x="46" y="490"/>
      <point x="90" y="630"/>
      <point x="179" y="758" type="curve"/>
      <point x="271" y="758" type="line"/>
      <point x="238" y="693"/>
      <point x="214" y="624"/>
      <point x="197" y="552" type="curve" smooth="yes"/>
      <point x="180" y="480"/>
      <point x="172" y="408"/>
      <point x="172" y="336" type="curve" smooth="yes"/>
      <point x="172" y="264"/>
      <point x="181" y="192"/>
      <point x="198" y="120" type="curve" smooth="yes"/>
      <point x="215" y="48"/>
      <point x="239" y="-21"/>
      <point x="271" y="-86" type="curve"/>
      <point x="178" y="-86" type="line"/>
      <point x="90" y="44"/>
      <point x="46" y="185"/>
    </contour>
  </outline>
</glyph>
<glyph name="two" format="2">
  <advance width="504"/>
  <unicode hex="0032"/>
  <outline>
    <contour>
      <point x="49" y="106" type="line"/>
      <point x="284" y="411" type="line" smooth="yes"/>
      <point x="310" y="446"/>
      <point x="323" y="479"/>
      <point x="323" y="510" type="curve" smooth="yes"/>
      <point x="323" y="524" type="line" smooth="yes"/>
      <point x="323" y="549"/>
      <point x="316" y="569"/>
      <point x="303" y="583" type="curve" smooth="yes"/>
      <point x="290" y="597"/>
      <point x="272" y="604"/>
      <point x="249" y="604" type="curve" smooth="yes"/>
      <point x="226" y="604"/>
      <point x="209" y="597"/>
      <point x="196" y="582" type="curve" smooth="yes"/>
      <point x="183" y="567"/>
      <point x="176" y="546"/>
      <point x="176" y="519" type="curve" smooth="yes"/>
      <point x="176" y="503" type="line"/>
      <point x="46" y="503" type="line"/>
      <point x="46" y="527" type="line" smooth="yes"/>
      <point x="46" y="564"/>
      <point x="54" y="597"/>
      <point x="71" y="626" type="curve" smooth="yes"/>
      <point x="88" y="655"/>
      <point x="112" y="677"/>
      <point x="143" y="693" type="curve" smooth="yes"/>
      <point x="174" y="709"/>
      <point x="212" y="718"/>
      <point x="254" y="718" type="curve" smooth="yes"/>
      <point x="295" y="718"/>
      <point x="331" y="709"/>
      <point x="362" y="692" type="curve" smooth="yes"/>
      <point x="393" y="675"/>
      <point x="417" y="653"/>
      <point x="434" y="624" type="curve" smooth="yes"/>
      <point x="451" y="595"/>
      <point x="459" y="563"/>
      <point x="459" y="528" type="curve" smooth="yes"/>
      <point x="459" y="511" type="line" smooth="yes"/>
      <point x="459" y="480"/>
      <point x="453" y="452"/>
      <point x="442" y="426" type="curve" smooth="yes"/>
      <point x="431" y="400"/>
      <point x="415" y="373"/>
      <point x="394" y="346" type="curve" smooth="yes"/>
      <point x="218" y="118" type="line"/>
      <point x="459" y="118" type="line"/>
      <point x="459" y="0" type="line"/>
      <point x="49" y="0" type="line"/>
    </contour>
  </outline>
</glyph>
<glyph name="three" format="2">
  <advance width="516"/>
  <unicode hex="0033"/>
  <outline>
    <contour>
      <point x="101" y="36" type="curve" smooth="yes"/>
      <point x="64" y="68"/>
      <point x="46" y="113"/>
      <point x="46" y="171" type="curve" smooth="yes"/>
      <point x="46" y="193" type="line"/>
      <point x="171" y="193" type="line"/>
      <point x="171" y="177" type="line" smooth="yes"/>
      <point x="171" y="152"/>
      <point x="178" y="134"/>
      <point x="192" y="121" type="curve" smooth="yes"/>
      <point x="206" y="108"/>
      <point x="226" y="102"/>
      <point x="253" y="102" type="curve" smooth="yes"/>
      <point x="278" y="102"/>
      <point x="298" y="111"/>
      <point x="313" y="127" type="curve" smooth="yes"/>
      <point x="328" y="143"/>
      <point x="335" y="166"/>
      <point x="335" y="194" type="curve" smooth="yes"/>
      <point x="335" y="212" type="line" smooth="yes"/>
      <point x="335" y="243"/>
      <point x="327" y="267"/>
      <point x="311" y="283" type="curve" smooth="yes"/>
      <point x="295" y="299"/>
      <point x="273" y="307"/>
      <point x="243" y="307" type="curve" smooth="yes"/>
      <point x="207" y="307" type="line"/>
      <point x="207" y="421" type="line"/>
      <point x="242" y="421" type="line" smooth="yes"/>
      <point x="268" y="421"/>
      <point x="288" y="428"/>
      <point x="302" y="443" type="curve" smooth="yes"/>
      <point x="316" y="458"/>
      <point x="324" y="479"/>
      <point x="324" y="506" type="curve" smooth="yes"/>
      <point x="324" y="521" type="line" smooth="yes"/>
      <point x="324" y="547"/>
      <point x="317" y="567"/>
      <point x="304" y="582" type="curve" smooth="yes"/>
      <point x="291" y="597"/>
      <point x="272" y="604"/>
      <point x="249" y="604" type="curve" smooth="yes"/>
      <point x="225" y="604"/>
      <point x="207" y="597"/>
      <point x="194" y="584" type="curve" smooth="yes"/>
      <point x="181" y="571"/>
      <point x="174" y="552"/>
      <point x="174" y="529" type="curve" smooth="yes"/>
      <point x="174" y="512" type="line"/>
      <point x="51" y="512" type="line"/>
      <point x="51" y="529" type="line" smooth="yes"/>
      <point x="51" y="588"/>
      <point x="69" y="635"/>
      <point x="105" y="668" type="curve" smooth="yes"/>
      <point x="141" y="701"/>
      <point x="191" y="718"/>
      <point x="254" y="718" type="curve" smooth="yes"/>
      <point x="316" y="718"/>
      <point x="365" y="701"/>
      <point x="400" y="667" type="curve" smooth="yes"/>
      <point x="435" y="633"/>
      <point x="454" y="588"/>
      <point x="454" y="531" type="curve" smooth="yes"/>
      <point x="454" y="516" type="line" smooth="yes"/>
      <point x="454" y="485"/>
      <point x="446" y="458"/>
      <point x="432" y="434" type="curve" smooth="yes"/>
      <point x="418" y="410"/>
      <point x="398" y="390"/>
      <point x="371" y="376" type="curve"/>
      <point x="402" y="363"/>
      <point x="425" y="342"/>
      <point x="441" y="314" type="curve" smooth="yes"/>
      <point x="457" y="286"/>
      <point x="465" y="253"/>
      <point x="465" y="213" type="curve" smooth="yes"/>
      <point x="465" y="194" type="line" smooth="yes"/>
      <point x="465" y="152"/>
      <point x="456" y="116"/>
      <point x="438" y="85" type="curve" smooth="yes"/>
      <point x="420" y="54"/>
      <point x="396" y="31"/>
      <point x="364" y="14" type="curve" smooth="yes"/>
      <point x="332" y="-3"/>
      <point x="295" y="-11"/>
      <point x="255" y="-11" type="curve" smooth="yes"/>
      <point x="189" y="-11"/>
      <point x="138" y="4"/>
    </contour>
  </outline>
</glyph>
<glyph name="C" format="2">
  <advance width="614"/>
  <unicode hex="0043"/>
  <outline>
    <contour>
      <point x="51" y="273" type="curve" smooth="yes"/>
      <point x="51" y="435" type="line" smooth="yes"/>
      <point x="51" y="623"/>
      <point x="137" y="717"/>
      <point x="310" y="717" type="curve" smooth="yes"/>
      <point x="387" y="717"/>
      <point x="449" y="696"/>
      <point x="495" y="655" type="curve" smooth="yes"/>
      <point x="541" y="614"/>
      <point x="563" y="556"/>
      <point x="563" y="482" type="curve" smooth="yes"/>
      <point x="563" y="475" type="line"/>
      <point x="429" y="475" type="line"/>
      <point x="429" y="481" type="line" smooth="yes"/>
      <point x="429" y="517"/>
      <point x="419" y="546"/>
      <point x="398" y="567" type="curve" smooth="yes"/>
      <point x="377" y="588"/>
      <point x="347" y="599"/>
      <point x="309" y="599" type="curve" smooth="yes"/>
      <point x="266" y="599"/>
      <point x="235" y="586"/>
      <point x="216" y="559" type="curve" smooth="yes"/>
      <point x="197" y="532"/>
      <point x="186" y="489"/>
      <point x="186" y="428" type="curve" smooth="yes"/>
      <point x="186" y="275" type="line" smooth="yes"/>
      <point x="186" y="218"/>
      <point x="197" y="177"/>
      <point x="217" y="151" type="curve" smooth="yes"/>
      <point x="237" y="125"/>
      <point x="268" y="112"/>
      <point x="311" y="112" type="curve" smooth="yes"/>
      <point x="349" y="112"/>
      <point x="379" y="122"/>
      <point x="399" y="142" type="curve" smooth="yes"/>
      <point x="419" y="162"/>
      <point x="429" y="191"/>
      <point x="429" y="226" type="curve" smooth="yes"/>
      <point x="429" y="234" type="line"/>
      <point x="561" y="234" type="line"/>
      <point x="561" y="227" type="line" smooth="yes"/>
      <point x="561" y="151"/>
      <point x="539" y="94"/>
      <point x="494" y="53" type="curve" smooth="yes"/>
      <point x="449" y="12"/>
      <point x="387" y="-8"/>
      <point x="308" y="-8" type="curve" smooth="yes"/>
      <point x="137" y="-8"/>
      <point x="51" y="85"/>
    </contour>
  </outline>
</glyph>
<glyph name="bracketright" format="2">
  <advance width="323"/>
  <unicode hex="005D"/>
  <outline>
    <contour>
      <point x="46" y="32" type="line"/>
      <point x="136" y="32" type="line"/>
      <point x="136" y="638" type="line"/>
      <point x="46" y="638" type="line"/>
      <point x="46" y="755" type="line"/>
      <point x="263" y="755" type="line"/>
      <point x="263" y="-86" type="line"/>
      <point x="46" y="-86" type="line"/>
    </contour>
  </outline>
</glyph>
<glyph name="b" format="2">
  <advance width="527"/>
  <unicode hex="0062"/>
  <outline>
    <contour>
      <point x="179" y="49" type="curve"/>
      <point x="179" y="0" type="line"/>
      <point x="55" y="0" type="line"/>
      <point x="55" y="707" type="line"/>
      <point x="182" y="707" type="line"/>
      <point x="182" y="478" type="line"/>
      <point x="211" y="518"/>
      <point x="251" y="539"/>
      <point x="301" y="539" type="curve" smooth="yes"/>
      <point x="354" y="539"/>
      <point x="398" y="520"/>
      <point x="431" y="484" type="curve" smooth="yes"/>
      <point x="464" y="448"/>
      <point x="481" y="393"/>
      <point x="481" y="319" type="curve" smooth="yes"/>
      <point x="481" y="214" type="line" smooth="yes"/>
      <point x="481" y="140"/>
      <point x="464" y="86"/>
      <point x="431" y="49" type="curve" smooth="yes"/>
      <point x="398" y="12"/>
      <point x="356" y="-6"/>
      <point x="305" y="-6" type="curve" smooth="yes"/>
      <point x="251" y="-6"/>
      <point x="209" y="12"/>
    </contour>
    <contour>
      <point x="354" y="218" type="curve" smooth="yes"/>
      <point x="354" y="314" type="line" smooth="yes"/>
      <point x="354" y="354"/>
      <point x="346" y="383"/>
      <point x="331" y="400" type="curve" smooth="yes"/>
      <point x="316" y="417"/>
      <point x="295" y="426"/>
      <point x="269" y="426" type="curve" smooth="yes"/>
      <point x="242" y="426"/>
      <point x="221" y="416"/>
      <point x="205" y="397" type="curve" smooth="yes"/>
      <point x="189" y="378"/>
      <point x="181" y="350"/>
      <point x="181" y="314" type="curve" smooth="yes"/>
      <point x="181" y="218" type="line" smooth="yes"/>
      <point x="181" y="182"/>
      <point x="189" y="154"/>
      <point x="205" y="135" type="curve" smooth="yes"/>
      <point x="221" y="116"/>
      <point x="243" y="106"/>
      <point x="272" y="106" type="curve" smooth="yes"/>
      <point x="327" y="106"/>
      <point x="354" y="144"/>
    </contour>
  </outline>
</glyph>
<glyph name="g" format="2">
  <advance width="526"/>
  <unicode hex="0067"/>
  <outline>
    <contour>
      <point x="110" y="-127" type="curve" smooth="yes"/>
      <point x="76" y="-100"/>
      <point x="56" y="-61"/>
      <point x="53" y="-13" type="curve"/>
      <point x="175" y="-13" type="line"/>
      <point x="178" y="-29"/>
      <point x="187" y="-43"/>
      <point x="202" y="-53" type="curve" smooth="yes"/>
      <point x="217" y="-63"/>
      <point x="236" y="-68"/>
      <point x="260" y="-68" type="curve" smooth="yes"/>
      <point x="318" y="-68"/>
      <point x="347" y="-35"/>
      <point x="347" y="31" type="curve" smooth="yes"/>
      <point x="347" y="96" type="line"/>
      <point x="318" y="59"/>
      <point x="276" y="41"/>
      <point x="222" y="41" type="curve" smooth="yes"/>
      <point x="171" y="41"/>
      <point x="129" y="59"/>
      <point x="96" y="96" type="curve" smooth="yes"/>
      <point x="63" y="133"/>
      <point x="46" y="187"/>
      <point x="46" y="261" type="curve" smooth="yes"/>
      <point x="46" y="319" type="line" smooth="yes"/>
      <point x="46" y="393"/>
      <point x="63" y="448"/>
      <point x="95" y="484" type="curve" smooth="yes"/>
      <point x="127" y="520"/>
      <point x="169" y="539"/>
      <point x="221" y="539" type="curve" smooth="yes"/>
      <point x="274" y="539"/>
      <point x="316" y="518"/>
      <point x="345" y="478" type="curve"/>
      <point x="345" y="532" type="line"/>
      <point x="471" y="532" type="line"/>
      <point x="471" y="39" type="line" smooth="yes"/>
      <point x="471" y="-24"/>
      <point x="452" y="-75"/>
      <point x="414" y="-112" type="curve" smooth="yes"/>
      <point x="376" y="-149"/>
      <point x="323" y="-168"/>
      <point x="255" y="-168" type="curve" smooth="yes"/>
      <point x="193" y="-168"/>
      <point x="144" y="-154"/>
    </contour>
    <contour>
      <point x="322" y="182" type="curve" smooth="yes"/>
      <point x="338" y="201"/>
      <point x="345" y="229"/>
      <point x="345" y="265" type="curve" smooth="yes"/>
      <point x="345" y="314" type="line" smooth="yes"/>
      <point x="345" y="350"/>
      <point x="337" y="378"/>
      <point x="322" y="397" type="curve" smooth="yes"/>
      <point x="307" y="416"/>
      <point x="285" y="426"/>
      <point x="258" y="426" type="curve" smooth="yes"/>
      <point x="201" y="426"/>
      <point x="173" y="388"/>
      <point x="173" y="314" type="curve" smooth="yes"/>
      <point x="173" y="265" type="line" smooth="yes"/>
      <point x="173" y="191"/>
      <point x="200" y="154"/>
      <point x="255" y="154" type="curve" smooth="yes"/>
      <point x="284" y="154"/>
      <point x="306" y="163"/>
    </contour>
  </outline>
</glyph>
<glyph name="o" format="2">
  <advance width="522"/>
  <unicode hex="006F"/>
  <anchor x="262" y="532" name="Anchor-0"/>
  <outline>
    <contour>
      <point x="104" y="48" type="curve" smooth="yes"/>
      <point x="65" y="84"/>
      <point x="46" y="141"/>
      <point x="46" y="217" type="curve" smooth="yes"/>
      <point x="46" y="316" type="line" smooth="yes"/>
      <point x="46" y="392"/>
      <point x="65" y="448"/>
      <point x="104" y="484" type="curve" smooth="yes"/>
      <point x="143" y="520"/>
      <point x="195" y="539"/>
      <point x="262" y="539" type="curve" smooth="yes"/>
      <point x="328" y="539"/>
      <point x="381" y="520"/>
      <point x="419" y="484" type="curve" smooth="yes"/>
      <point x="457" y="448"/>
      <point x="476" y="392"/>
      <point x="476" y="316" type="curve" smooth="yes"/>
      <point x="476" y="217" type="line" smooth="yes"/>
      <point x="476" y="141"/>
      <point x="457" y="84"/>
      <point x="419" y="48" type="curve" smooth="yes"/>
      <point x="381" y="12"/>
      <point x="328" y="-6"/>
      <point x="262" y="-6" type="curve" smooth="yes"/>
      <point x="195" y="-6"/>
      <point x="143" y="12"/>
    </contour>
    <contour>
      <point x="350" y="218" type="curve" smooth="yes"/>
      <point x="350" y="314" type="line" smooth="yes"/>
      <point x="350" y="388"/>
      <point x="321" y="426"/>
      <point x="262" y="426" type="curve" smooth="yes"/>
      <point x="202" y="426"/>
      <point x="172" y="388"/>
      <point x="172" y="314" type="curve" smooth="yes"/>
      <point x="172" y="218" type="line" smooth="yes"/>
      <point x="172" y="144"/>
      <point x="202" y="106"/>
      <point x="262" y="106" type="curve" smooth="yes"/>
      <point x="321" y="106"/>
      <point x="350" y="144"/>
    </contour>
  </outline>
</glyph>
<glyph name="r" format="2">
  <advance width="366"/>
  <unicode hex="0072"/>
  <outline>
    <contour>
      <point x="55" y="532" type="line"/>
      <point x="179" y="532" type="line"/>
      <point x="179" y="477" type="line"/>
      <point x="192" y="500"/>
      <point x="209" y="516"/>
      <point x="231" y="527" type="curve" smooth="yes"/>
      <point x="253" y="538"/>
      <point x="278" y="544"/>
      <point x="305" y="544" type="curve" smooth="yes"/>
      <point x="321" y="544"/>
      <point x="335" y="543"/>
      <point x="348" y="540" type="curve"/>
      <point x="348" y="421" type="line"/>
      <point x="324" y="429"/>
      <point x="303" y="432"/>
      <point x="285" y="432" type="curve" smooth="yes"/>
      <point x="254" y="432"/>
      <point x="229" y="422"/>
      <point x="210" y="403" type="curve" smooth="yes"/>
      <point x="191" y="384"/>
      <point x="182" y="355"/>
      <point x="182" y="319" type="curve" smooth="yes"/>
      <point x="182" y="0" type="line"/>
      <point x="55" y="0" type="line"/>
    </contour>
  </outline>
</glyph>
<glyph name="braceleft" format="2">
  <advance width="368"/>
  <unicode hex="007B"/>
  <outline>
    <contour>
      <point x="157" y="-54" type="curve" smooth="yes"/>
      <point x="135" y="-32"/>
      <point x="124" y="-1"/>
      <point x="124" y="40" type="curve" smooth="yes"/>
      <point x="124" y="202" type="line" smooth="yes"/>
      <point x="124" y="231"/>
      <point x="118" y="251"/>
      <point x="106" y="264" type="curve" smooth="yes"/>
      <point x="94" y="277"/>
      <point x="75" y="284"/>
      <point x="46" y="284" type="curve"/>
      <point x="46" y="392" type="line"/>
      <point x="75" y="392"/>
      <point x="94" y="399"/>
      <point x="106" y="412" type="curve" smooth="yes"/>
      <point x="118" y="425"/>
      <point x="124" y="445"/>
      <point x="124" y="474" type="curve" smooth="yes"/>
      <point x="124" y="633" type="line" smooth="yes"/>
      <point x="124" y="673"/>
      <point x="135" y="704"/>
      <point x="157" y="726" type="curve" smooth="yes"/>
      <point x="179" y="748"/>
      <point x="210" y="758"/>
      <point x="251" y="758" type="curve" smooth="yes"/>
      <point x="323" y="758" type="line"/>
      <point x="323" y="655" type="line"/>
      <point x="287" y="655" type="line" smooth="yes"/>
      <point x="258" y="655"/>
      <point x="244" y="640"/>
      <point x="244" y="610" type="curve" smooth="yes"/>
      <point x="244" y="468" type="line" smooth="yes"/>
      <point x="244" y="429"/>
      <point x="239" y="399"/>
      <point x="228" y="380" type="curve" smooth="yes"/>
      <point x="217" y="361"/>
      <point x="198" y="347"/>
      <point x="171" y="338" type="curve"/>
      <point x="198" y="328"/>
      <point x="217" y="314"/>
      <point x="228" y="295" type="curve" smooth="yes"/>
      <point x="239" y="276"/>
      <point x="244" y="247"/>
      <point x="244" y="208" type="curve" smooth="yes"/>
      <point x="244" y="61" type="line" smooth="yes"/>
      <point x="244" y="31"/>
      <point x="258" y="16"/>
      <point x="287" y="16" type="curve" smooth="yes"/>
      <point x="323" y="16" type="line"/>
      <point x="323" y="-86" type="line"/>
      <point x="251" y="-86" type="line" smooth="yes"/>
      <point x="210" y="-86"/>
      <point x="179" y="-76"/>
    </contour>
  </outline>
</glyph>
<glyph name="dieresis" format="2">
  <advance width="512"/>
  <unicode hex="00A8"/>
  <outline>
    <contour>
      <point x="102" y="720" type="line"/>
      <point x="212" y="720" type="line"/>
      <point x="212" y="601" type="line"/>
      <point x="102" y="601" type="line"/>
    </contour>
    <contour>
      <point x="299" y="720" type="line"/>
      <point x="409" y="720" type="line"/>
      <point x="409" y="601" type="line"/>
      <point x="299" y="601" type="line"/>
    </contour>
  </outline>
</glyph>
<glyph name="copyright" format="2">
  <advance width="802"/>
  <unicode hex="00A9"/>
  <outline>
    <contour>
      <point x="217" y="36" type="curve" smooth="yes"/>
      <point x="164" y="66"/>
      <point x="123" y="108"/>
      <point x="94" y="162" type="curve" smooth="yes"/>
      <point x="65" y="216"/>
      <point x="51" y="279"/>
      <point x="51" y="350" type="curve" smooth="yes"/>
      <point x="51" y="422"/>
      <point x="65" y="485"/>
      <point x="94" y="539" type="curve" smooth="yes"/>
      <point x="123" y="593"/>
      <point x="164" y="635"/>
      <point x="217" y="665" type="curve" smooth="yes"/>
      <point x="270" y="695"/>
      <point x="331" y="710"/>
      <point x="401" y="710" type="curve" smooth="yes"/>
      <point x="471" y="710"/>
      <point x="533" y="695"/>
      <point x="586" y="665" type="curve" smooth="yes"/>
      <point x="639" y="635"/>
      <point x="680" y="592"/>
      <point x="709" y="538" type="curve" smooth="yes"/>
      <point x="738" y="484"/>
      <point x="752" y="421"/>
      <point x="752" y="350" type="curve" smooth="yes"/>
      <point x="752" y="279"/>
      <point x="738" y="216"/>
      <point x="709" y="162" type="curve" smooth="yes"/>
      <point x="680" y="108"/>
      <point x="639" y="66"/>
      <point x="586" y="36" type="curve" smooth="yes"/>
      <point x="533" y="6"/>
      <point x="471" y="-9"/>
      <point x="401" y="-9" type="curve" smooth="yes"/>
      <point x="331" y="-9"/>
      <point x="270" y="6"/>
    </contour>
    <contour>
      <point x="598" y="145" type="curve" smooth="yes"/>
      <point x="645" y="195"/>
      <point x="669" y="263"/>
      <point x="669" y="350" type="curve" smooth="yes"/>
      <point x="669" y="437"/>
      <point x="645" y="505"/>
      <point x="598" y="556" type="curve" smooth="yes"/>
      <point x="551" y="607"/>
      <point x="484" y="632"/>
      <point x="401" y="632" type="curve" smooth="yes"/>
      <point x="318" y="632"/>
      <point x="252" y="607"/>
      <point x="205" y="556" type="curve" smooth="yes"/>
      <point x="158" y="505"/>
      <point x="134" y="437"/>
      <point x="134" y="350" type="curve" smooth="yes"/>
      <point x="134" y="263"/>
      <point x="158" y="195"/>
      <point x="205" y="145" type="curve" smooth="yes"/>
      <point x="252" y="95"/>
      <point x="318" y="70"/>
      <point x="401" y="70" type="curve" smooth="yes"/>
      <point x="484" y="70"/>
      <point x="551" y="95"/>
    </contour>
    <contour>
      <point x="289" y="191" type="curve" smooth="yes"/>
      <point x="261" y="217"/>
      <point x="247" y="258"/>
      <point x="247" y="314" type="curve" smooth="yes"/>
      <point x="247" y="386" type="line" smooth="yes"/>
      <point x="247" y="441"/>
      <point x="261" y="482"/>
      <point x="289" y="509" type="curve" smooth="yes"/>
      <point x="317" y="536"/>
      <point x="355" y="549"/>
      <point x="403" y="549" type="curve" smooth="yes"/>
      <point x="451" y="549"/>
      <point x="489" y="537"/>
      <point x="516" y="512" type="curve" smooth="yes"/>
      <point x="543" y="487"/>
      <point x="556" y="454"/>
      <point x="556" y="411" type="curve" smooth="yes"/>
      <point x="556" y="403" type="line"/>
      <point x="468" y="403" type="line"/>
      <point x="468" y="408" type="line" smooth="yes"/>
      <point x="468" y="426"/>
      <point x="462" y="440"/>
      <point x="451" y="451" type="curve" smooth="yes"/>
      <point x="440" y="462"/>
      <point x="425" y="467"/>
      <point x="406" y="467" type="curve" smooth="yes"/>
      <point x="361" y="467"/>
      <point x="338" y="440"/>
      <point x="338" y="385" type="curve" smooth="yes"/>
      <point x="338" y="315" type="line" smooth="yes"/>
      <point x="338" y="285"/>
      <point x="343" y="264"/>
      <point x="355" y="252" type="curve" smooth="yes"/>
      <point x="367" y="240"/>
      <point x="384" y="233"/>
      <point x="406" y="233" type="curve" smooth="yes"/>
      <point x="426" y="233"/>
      <point x="441" y="238"/>
      <point x="452" y="248" type="curve" smooth="yes"/>
      <point x="463" y="258"/>
      <point x="468" y="273"/>
      <point x="468" y="291" type="curve" smooth="yes"/>
      <point x="468" y="295" type="line"/>
      <point x="556" y="295" type="line"/>
      <point x="556" y="290" type="line" smooth="yes"/>
      <point x="556" y="248"/>
      <point x="542" y="214"/>
      <point x="515" y="189" type="curve" smooth="yes"/>
      <point x="488" y="164"/>
      <point x="450" y="152"/>
      <point x="403" y="152" type="curve" smooth="yes"/>
      <point x="355" y="152"/>
      <point x="317" y="165"/>
    </contour>
  </outline>
</glyph>
<glyph name="paragraph" format="2">
  <advance width="659"/>
  <unicode hex="00B6"/>
  <outline>
    <contour>
      <point x="262" y="259" type="line"/>
      <point x="222" y="262"/>
      <point x="187" y="273"/>
      <point x="157" y="293" type="curve" smooth="yes"/>
      <point x="127" y="313"/>
      <point x="103" y="339"/>
      <point x="86" y="372" type="curve" smooth="yes"/>
      <point x="69" y="405"/>
      <point x="60" y="442"/>
      <point x="60" y="483" type="curve" smooth="yes"/>
      <point x="60" y="525"/>
      <point x="70" y="563"/>
      <point x="89" y="597" type="curve" smooth="yes"/>
      <point x="108" y="631"/>
      <point x="134" y="658"/>
      <point x="169" y="677" type="curve" smooth="yes"/>
      <point x="204" y="696"/>
      <point x="245" y="707"/>
      <point x="293" y="707" type="curve" smooth="yes"/>
      <point x="568" y="707" type="line"/>
      <point x="568" y="-160" type="line"/>
      <point x="459" y="-160" type="line"/>
      <point x="459" y="604" type="line"/>
      <point x="375" y="604" type="line"/>
      <point x="375" y="-160" type="line"/>
      <point x="262" y="-160" type="line"/>
    </contour>
  </outline>
</glyph>
<glyph name="onehalf" format="2">
  <advance width="822"/>
  <unicode hex="00BD"/>
  <outline>
    <contour>
      <point x="99" y="592" type="line"/>
      <point x="30" y="543" type="line"/>
      <point x="30" y="655" type="line"/>
      <point x="100" y="707" type="line"/>
      <point x="205" y="707" type="line"/>
      <point x="205" y="278" type="line"/>
      <point x="99" y="278" type="line"/>
    </contour>
    <contour>
      <point x="513" y="82" type="line"/>
      <point x="653" y="257" type="line" smooth="yes"/>
      <point x="667" y="274"/>
      <point x="674" y="290"/>
      <point x="674" y="305" type="curve" smooth="yes"/>
      <point x="674" y="312" type="line" smooth="yes"/>
      <point x="674" y="323"/>
      <point x="671" y="332"/>
      <point x="666" y="338" type="curve" smooth="yes"/>
      <point x="661" y="344"/>
      <point x="652" y="348"/>
      <point x="642" y="348" type="curve" smooth="yes"/>
      <point x="632" y="348"/>
      <point x="625" y="345"/>
      <point x="620" y="338" type="curve" smooth="yes"/>
      <point x="615" y="331"/>
      <point x="611" y="322"/>
      <point x="611" y="310" type="curve" smooth="yes"/>
      <point x="611" y="301" type="line"/>
      <point x="510" y="301" type="line"/>
      <point x="510" y="316" type="line" smooth="yes"/>
      <point x="510" y="351"/>
      <point x="522" y="381"/>
      <point x="547" y="403" type="curve" smooth="yes"/>
      <point x="572" y="425"/>
      <point x="605" y="436"/>
      <point x="647" y="436" type="curve" smooth="yes"/>
      <point x="687" y="436"/>
      <point x="719" y="424"/>
      <point x="744" y="401" type="curve" smooth="yes"/>
      <point x="769" y="378"/>
      <point x="781" y="350"/>
      <point x="781" y="317" type="curve" smooth="yes"/>
      <point x="781" y="306" type="line" smooth="yes"/>
      <point x="781" y="287"/>
      <point x="778" y="269"/>
      <point x="771" y="254" type="curve" smooth="yes"/>
      <point x="764" y="239"/>
      <point x="754" y="223"/>
      <point x="740" y="207" type="curve" smooth="yes"/>
      <point x="646" y="91" type="line"/>
      <point x="781" y="91" type="line"/>
      <point x="781" y="0" type="line"/>
      <point x="513" y="0" type="line"/>
    </contour>
    <contour>
      <point x="510" y="712" type="line"/>
      <point x="611" y="712" type="line"/>
      <point x="216" y="-0" type="line"/>
      <point x="116" y="-0" type="line"/>
    </contour>
  </outline>
</glyph>
<glyph name="threequarters" format="2">
  <advance width="913"/>
  <unicode hex="00BE"/>
  <outline>
    <contour>
      <point x="73" y="300" type="curve" smooth="yes"/>
      <point x="49" y="320"/>
      <point x="38" y="348"/>
      <point x="38" y="386" type="curve" smooth="yes"/>
      <point x="38" y="401" type="line"/>
      <point x="133" y="401" type="line"/>
      <point x="133" y="391" type="line" smooth="yes"/>
      <point x="133" y="368"/>
      <point x="146" y="357"/>
      <point x="171" y="357" type="curve" smooth="yes"/>
      <point x="182" y="357"/>
      <point x="191" y="361"/>
      <point x="197" y="368" type="curve" smooth="yes"/>
      <point x="203" y="375"/>
      <point x="207" y="385"/>
      <point x="207" y="398" type="curve" smooth="yes"/>
      <point x="207" y="408" type="line" smooth="yes"/>
      <point x="207" y="439"/>
      <point x="192" y="454"/>
      <point x="163" y="454" type="curve" smooth="yes"/>
      <point x="141" y="454" type="line"/>
      <point x="141" y="541" type="line"/>
      <point x="162" y="541" type="line" smooth="yes"/>
      <point x="174" y="541"/>
      <point x="184" y="544"/>
      <point x="190" y="551" type="curve" smooth="yes"/>
      <point x="196" y="558"/>
      <point x="200" y="568"/>
      <point x="200" y="580" type="curve" smooth="yes"/>
      <point x="200" y="588" type="line" smooth="yes"/>
      <point x="200" y="613"/>
      <point x="189" y="626"/>
      <point x="168" y="626" type="curve" smooth="yes"/>
      <point x="145" y="626"/>
      <point x="134" y="615"/>
      <point x="134" y="594" type="curve" smooth="yes"/>
      <point x="134" y="583" type="line"/>
      <point x="40" y="583" type="line"/>
      <point x="40" y="593" type="line" smooth="yes"/>
      <point x="40" y="631"/>
      <point x="52" y="661"/>
      <point x="75" y="682" type="curve" smooth="yes"/>
      <point x="98" y="703"/>
      <point x="130" y="714"/>
      <point x="172" y="714" type="curve" smooth="yes"/>
      <point x="212" y="714"/>
      <point x="244" y="703"/>
      <point x="267" y="682" type="curve" smooth="yes"/>
      <point x="290" y="661"/>
      <point x="301" y="632"/>
      <point x="301" y="597" type="curve" smooth="yes"/>
      <point x="301" y="588" type="line" smooth="yes"/>
      <point x="301" y="551"/>
      <point x="285" y="524"/>
      <point x="254" y="506" type="curve"/>
      <point x="272" y="499"/>
      <point x="285" y="487"/>
      <point x="294" y="470" type="curve" smooth="yes"/>
      <point x="303" y="453"/>
      <point x="308" y="433"/>
      <point x="308" y="410" type="curve" smooth="yes"/>
      <point x="308" y="398" type="line" smooth="yes"/>
      <point x="308" y="359"/>
      <point x="295" y="328"/>
      <point x="270" y="305" type="curve" smooth="yes"/>
      <point x="245" y="282"/>
      <point x="213" y="270"/>
      <point x="174" y="270" type="curve" smooth="yes"/>
      <point x="130" y="270"/>
      <point x="97" y="280"/>
    </contour>
    <contour>
      <point x="888" y="58" type="line"/>
      <point x="860" y="58" type="line"/>
      <point x="860" y="0" type="line"/>
      <point x="755" y="0" type="line"/>
      <point x="755" y="58" type="line"/>
      <point x="589" y="58" type="line"/>
      <point x="589" y="150" type="line"/>
      <point x="707" y="429" type="line"/>
      <point x="812" y="429" type="line"/>
      <point x="694" y="150" type="line"/>
      <point x="755" y="150" type="line"/>
      <point x="755" y="240" type="line"/>
      <point x="860" y="240" type="line"/>
      <point x="860" y="150" type="line"/>
      <point x="888" y="150" type="line"/>
    </contour>
    <contour>
      <point x="600" y="712" type="line"/>
      <point x="701" y="712" type="line"/>
      <point x="306" y="0" type="line"/>
      <point x="206" y="0" type="line"/>
    </contour>
  </outline>
</glyph>
<glyph name="Agrave" format="2">
  <advance width="620"/>
  <unicode hex="00C0"/>
  <anchor x="310" y="707" name="Anchor-0"/>
  <outline>
    <contour>
      <point x="431" y="137" type="line"/>
      <point x="188" y="137" type="line"/>
      <point x="145" y="0" type="line"/>
      <point x="4" y="0" type="line"/>
      <point x="255" y="707" type="line"/>
      <point x="365" y="707" type="line"/>
      <point x="616" y="0" type="line"/>
      <point x="474" y="0" type="line"/>
    </contour>
    <contour>
      <point x="395" y="249" type="line"/>
      <point x="309" y="520" type="line"/>
      <point x="224" y="249" type="line"/>
    </contour>
    <contour>
      <point x="147" y="912" type="line"/>
      <point x="288" y="912" type="line"/>
      <point x="398" y="776" type="line"/>
      <point x="289" y="776" type="line"/>
    </contour>
  </outline>
</glyph>
<glyph name="Atilde" format="2">
  <advance width="620"/>
  <unicode hex="00C3"/>
  <anchor x="310" y="707" name="Anchor-0"/>
  <outline>
    <contour>
      <point x="431" y="137" type="line"/>
      <point x="188" y="137" type="line"/>
      <point x="145" y="0" type="line"/>
      <point x="4" y="0" type="line"/>
      <point x="255" y="707" type="line"/>
      <point x="365" y="707" type="line"/>
      <point x="616" y="0" type="line"/>
      <point x="474" y="0" type="line"/>
    </contour>
    <contour>
      <point x="395" y="249" type="line"/>
      <point x="309" y="520" type="line"/>
      <point x="224" y="249" type="line"/>
    </contour>
    <contour>
      <point x="165" y="862" type="line"/>
      <point x="181" y="878"/>
      <point x="194" y="889"/>
      <point x="206" y="896" type="curve" smooth="yes"/>
      <point x="218" y="903"/>
      <point x="232" y="906"/>
      <point x="248" y="906" type="curve" smooth="yes"/>
      <point x="262" y="906"/>
      <point x="274" y="904"/>
      <point x="284" y="901" type="curve" smooth="yes"/>
      <point x="294" y="898"/>
      <point x="307" y="892"/>
      <point x="321" y="885" type="curve" smooth="yes"/>
      <point x="343" y="873"/>
      <point x="361" y="867"/>
      <point x="377" y="867" type="curve" smooth="yes"/>
      <point x="391" y="867"/>
      <point x="403" y="871"/>
      <point x="413" y="876" type="curve" smooth="yes"/>
      <point x="423" y="881"/>
      <point x="437" y="892"/>
      <point x="455" y="908" type="curve"/>
      <point x="455" y="815" type="line"/>
      <point x="439" y="799"/>
      <point x="425" y="788"/>
      <point x="413" y="781" type="curve" smooth="yes"/>
      <point x="401" y="774"/>
      <point x="388" y="771"/>
      <point x="372" y="771" type="curve" smooth="yes"/>
      <point x="359" y="771"/>
      <point x="347" y="773"/>
      <point x="337" y="776" type="curve" smooth="yes"/>
      <point x="327" y="779"/>
      <point x="314" y="785"/>
      <point x="300" y="793" type="curve" smooth="yes"/>
      <point x="278" y="805"/>
      <point x="260" y="810"/>
      <point x="244" y="810" type="curve" smooth="yes"/>
      <point x="230" y="810"/>
      <point x="218" y="807"/>
      <point x="208" y="802" type="curve" smooth="yes"/>
      <point x="198" y="797"/>
      <point x="183" y="786"/>
      <point x="165" y="770" type="curve"/>
    </contour>
  </outline>
</glyph>
<glyph name="Adieresis" format="2">
  <advance width="620"/>
  <unicode hex="00C4"/>
  <anchor x="310" y="707" name="Anchor-0"/>
  <outline>
    <contour>
      <point x="431" y="137" type="line"/>
      <point x="188" y="137" type="line"/>
      <point x="145" y="0" type="line"/>
      <point x="4" y="0" type="line"/>
      <point x="255" y="707" type="line"/>
      <point x="365" y="707" type="line"/>
      <point x="616" y="0" type="line"/>
      <point x="474" y="0" type="line"/>
    </contour>
    <contour>
      <point x="395" y="249" type="line"/>
      <point x="309" y="520" type="line"/>
      <point x="224" y="249" type="line"/>
    </contour>
    <contour>
      <point x="157" y="894" type="line"/>
      <point x="266" y="894" type="line"/>
      <point x="266" y="775" type="line"/>
      <point x="157" y="775" type="line"/>
    </contour>
    <contour>
      <point x="353" y="894" type="line"/>
      <point x="463" y="894" type="line"/>
      <point x="463" y="775" type="line"/>
      <point x="353" y="775" type="line"/>
    </contour>
  </outline>
</glyph>
<glyph name="Ecircumflex" format="2">
  <advance width="544"/>
  <unicode hex="00CA"/>
  <anchor x="274" y="707" name="Anchor-0"/>
  <outline>
    <contour>
      <point x="195" y="590" type="line"/>
      <point x="195" y="415" type="line"/>
      <point x="463" y="415" type="line"/>
      <point x="463" y="298" type="line"/>
      <point x="195" y="298" type="line"/>
      <point x="195" y="117" type="line"/>
      <point x="509" y="117" type="line"/>
      <point x="509" y="0" type="line"/>
      <point x="60" y="0" type="line"/>
      <point x="60" y="707" type="line"/>
      <point x="509" y="707" type="line"/>
      <point x="509" y="590" type="line"/>
    </contour>
    <contour>
      <point x="227" y="920" type="line"/>
      <point x="321" y="920" type="line"/>
      <point x="438" y="765" type="line"/>
      <point x="339" y="765" type="line"/>
      <point x="274" y="845" type="line"/>
      <point x="210" y="765" type="line"/>
      <point x="110" y="765" type="line"/>
    </contour>
  </outline>
</glyph>
<glyph name="Edieresis" format="2">
  <advance width="544"/>
  <unicode hex="00CB"/>
  <anchor x="274" y="707" name="Anchor-0"/>
  <outline>
    <contour>
      <point x="195" y="590" type="line"/>
      <point x="195" y="415" type="line"/>
      <point x="463" y="415" type="line"/>
      <point x="463" y="298" type="line"/>
      <point x="195" y="298" type="line"/>
      <point x="195" y="117" type="line"/>
      <point x="509" y="117" type="line"/>
      <point x="509" y="0" type="line"/>
      <point x="60" y="0" type="line"/>
      <point x="60" y="707" type="line"/>
      <point x="509" y="707" type="line"/>
      <point x="509" y="590" type="line"/>
    </contour>
    <contour>
      <point x="121" y="894" type="line"/>
      <point x="230" y="894" type="line"/>
      <point x="230" y="775" type="line"/>
      <point x="121" y="775" type="line"/>
    </contour>
    <contour>
      <point x="317" y="894" type="line"/>
      <point x="427" y="894" type="line"/>
      <point x="427" y="775" type="line"/>
      <point x="317" y="775" type="line"/>
    </contour>
  </outline>
</glyph>
<glyph name="Icircumflex" format="2">
  <advance width="267"/>
  <unicode hex="00CE"/>
  <anchor x="133" y="707" name="Anchor-0"/>
  <outline>
    <contour>
      <point x="67" y="707" type="line"/>
      <point x="201" y="707" type="line"/>
      <point x="201" y="0" type="line"/>
      <point x="67" y="0" type="line"/>
    </contour>
    <contour>
      <point x="86" y="920" type="line"/>
      <point x="179" y="920" type="line"/>
      <point x="297" y="765" type="line"/>
      <point x="198" y="765" type="line"/>
      <point x="133" y="845" type="line"/>
      <point x="69" y="765" type="line"/>
      <point x="-32" y="765" type="line"/>
    </contour>
  </outline>
</glyph>
<glyph name="Idieresis" format="2">
  <advance width="267"/>
  <unicode hex="00CF"/>
  <anchor x="133" y="707" name="Anchor-0"/>
  <outline>
    <contour>
      <point x="67" y="707" type="line"/>
      <point x="201" y="707" type="line"/>
      <point x="201" y="0" type="line"/>
      <point x="67" y="0" type="line"/>
    </contour>
    <contour>
      <point x="-20" y="894" type="line"/>
      <point x="89" y="894" type="line"/>
      <point x="89" y="775" type="line"/>
      <point x="-20" y="775" type="line"/>
    </contour>
    <contour>
      <point x="176" y="894" type="line"/>
      <point x="286" y="894" type="line"/>
      <point x="286" y="775" type="line"/>
      <point x="176" y="775" type="line"/>
    </contour>
  </outline>
</glyph>
<glyph name="Ntilde" format="2">
  <advance width="649"/>
  <unicode hex="00D1"/>
  <anchor x="325" y="707" name="Anchor-0"/>
  <outline>
    <contour>
      <point x="589" y="707" type="line"/>
      <point x="589" y="0" type="line"/>
      <point x="455" y="0" type="line"/>
      <point x="195" y="441" type="line"/>
      <point x="195" y="0" type="line"/>
      <point x="60" y="0" type="line"/>
      <point x="60" y="707" type="line"/>
      <point x="195" y="707" type="line"/>
      <point x="455" y="264" type="line"/>
      <point x="455" y="707" type="line"/>
    </contour>
    <contour>
      <point x="179" y="862" type="line"/>
      <point x="195" y="878"/>
      <point x="209" y="889"/>
      <point x="221" y="896" type="curve" smooth="yes"/>
      <point x="233" y="903"/>
      <point x="246" y="906"/>
      <point x="262" y="906" type="curve" smooth="yes"/>
      <point x="276" y="906"/>
      <point x="288" y="904"/>
      <point x="298" y="901" type="curve" smooth="yes"/>
      <point x="308" y="898"/>
      <point x="321" y="892"/>
      <point x="335" y="885" type="curve" smooth="yes"/>
      <point x="357" y="873"/>
      <point x="375" y="867"/>
      <point x="391" y="867" type="curve" smooth="yes"/>
      <point x="405" y="867"/>
      <point x="417" y="871"/>
      <point x="427" y="876" type="curve" smooth="yes"/>
      <point x="437" y="881"/>
      <point x="451" y="892"/>
      <point x="469" y="908" type="curve"/>
      <point x="469" y="815" type="line"/>
      <point x="453" y="799"/>
      <point x="440" y="788"/>
      <point x="428" y="781" type="curve" smooth="yes"/>
      <point x="416" y="774"/>
      <point x="402" y="771"/>
      <point x="386" y="771" type="curve" smooth="yes"/>
      <point x="373" y="771"/>
      <point x="361" y="773"/>
      <point x="351" y="776" type="curve" smooth="yes"/>
      <point x="341" y="779"/>
      <point x="328" y="785"/>
      <point x="314" y="793" type="curve" smooth="yes"/>
      <point x="292" y="805"/>
      <point x="274" y="810"/>
      <point x="258" y="810" type="curve" smooth="yes"/>
      <point x="244" y="810"/>
      <point x="232" y="807"/>
      <point x="222" y="802" type="curve" smooth="yes"/>
      <point x="212" y="797"/>
      <point x="197" y="786"/>
      <point x="179" y="770" type="curve"/>
    </contour>
  </outline>
</glyph>
<glyph name="Otilde" format="2">
  <advance width="614"/>
  <unicode hex="00D5"/>
  <anchor x="307" y="707" name="Anchor-0"/>
  <outline>
    <contour>
      <point x="51" y="273" type="curve" smooth="yes"/>
      <point x="51" y="435" type="line" smooth="yes"/>
      <point x="51" y="623"/>
      <point x="137" y="717"/>
      <point x="308" y="717" type="curve" smooth="yes"/>
      <point x="387" y="717"/>
      <point x="449" y="695"/>
      <point x="495" y="651" type="curve" smooth="yes"/>
      <point x="541" y="607"/>
      <point x="563" y="535"/>
      <point x="563" y="435" type="curve" smooth="yes"/>
      <point x="563" y="273" type="line" smooth="yes"/>
      <point x="563" y="173"/>
      <point x="540" y="102"/>
      <point x="493" y="58" type="curve" smooth="yes"/>
      <point x="446" y="14"/>
      <point x="383" y="-8"/>
      <point x="304" y="-8" type="curve" smooth="yes"/>
      <point x="135" y="-8"/>
      <point x="51" y="85"/>
    </contour>
    <contour>
      <point x="399" y="151" type="curve" smooth="yes"/>
      <point x="419" y="177"/>
      <point x="429" y="218"/>
      <point x="429" y="275" type="curve" smooth="yes"/>
      <point x="429" y="428" type="line" smooth="yes"/>
      <point x="429" y="488"/>
      <point x="419" y="532"/>
      <point x="399" y="559" type="curve" smooth="yes"/>
      <point x="379" y="586"/>
      <point x="349" y="599"/>
      <point x="308" y="599" type="curve" smooth="yes"/>
      <point x="265" y="599"/>
      <point x="234" y="586"/>
      <point x="215" y="560" type="curve" smooth="yes"/>
      <point x="196" y="534"/>
      <point x="186" y="489"/>
      <point x="186" y="428" type="curve" smooth="yes"/>
      <point x="186" y="275" type="line" smooth="yes"/>
      <point x="186" y="217"/>
      <point x="196" y="176"/>
      <point x="215" y="150" type="curve" smooth="yes"/>
      <point x="234" y="124"/>
      <point x="265" y="112"/>
      <point x="308" y="112" type="curve" smooth="yes"/>
      <point x="349" y="112"/>
      <point x="379" y="125"/>
    </contour>
    <contour>
      <point x="162" y="862" type="line"/>
      <point x="178" y="878"/>
      <point x="191" y="889"/>
      <point x="203" y="896" type="curve" smooth="yes"/>
      <point x="215" y="903"/>
      <point x="229" y="906"/>
      <point x="245" y="906" type="curve" smooth="yes"/>
      <point x="259" y="906"/>
      <point x="271" y="904"/>
      <point x="281" y="901" type="curve" smooth="yes"/>
      <point x="291" y="898"/>
      <point x="303" y="892"/>
      <point x="317" y="885" type="curve" smooth="yes"/>
      <point x="339" y="873"/>
      <point x="358" y="867"/>
      <point x="374" y="867" type="curve" smooth="yes"/>
      <point x="388" y="867"/>
      <point x="400" y="871"/>
      <point x="410" y="876" type="curve" smooth="yes"/>
      <point x="420" y="881"/>
      <point x="434" y="892"/>
      <point x="452" y="908" type="curve"/>
      <point x="452" y="815" type="line"/>
      <point x="436" y="799"/>
      <point x="422" y="788"/>
      <point x="410" y="781" type="curve" smooth="yes"/>
      <point x="398" y="774"/>
      <point x="385" y="771"/>
      <point x="369" y="771" type="curve" smooth="yes"/>
      <point x="356" y="771"/>
      <point x="344" y="773"/>
      <point x="334" y="776" type="curve" smooth="yes"/>
      <point x="324" y="779"/>
      <point x="311" y="785"/>
      <point x="297" y="793" type="curve" smooth="yes"/>
      <point x="275" y="805"/>
      <point x="257" y="810"/>
      <point x="241" y="810" type="curve" smooth="yes"/>
      <point x="227" y="810"/>
      <point x="215" y="807"/>
      <point x="205" y="802" type="curve" smooth="yes"/>
      <point x="195" y="797"/>
      <point x="180" y="786"/>
      <point x="162" y="770" type="curve"/>
    </contour>
  </outline>
</glyph>
<glyph name="Ucircumflex" format="2">
  <advance width="628"/>
  <unicode hex="00DB"/>
  <anchor x="314" y="707" name="Anchor-0"/>
  <outline>
    <contour>
      <point x="184" y="24" type="curve" smooth="yes"/>
      <point x="145" y="44"/>
      <point x="115" y="72"/>
      <point x="93" y="109" type="curve" smooth="yes"/>
      <point x="71" y="146"/>
      <point x="60" y="187"/>
      <point x="60" y="233" type="curve" smooth="yes"/>
      <point x="60" y="707" type="line"/>
      <point x="195" y="707" type="line"/>
      <point x="195" y="238" type="line" smooth="yes"/>
      <point x="195" y="198"/>
      <point x="205" y="166"/>
      <point x="226" y="144" type="curve" smooth="yes"/>
      <point x="247" y="122"/>
      <point x="276" y="111"/>
      <point x="313" y="111" type="curve" smooth="yes"/>
      <point x="350" y="111"/>
      <point x="379" y="122"/>
      <point x="401" y="144" type="curve" smooth="yes"/>
      <point x="423" y="166"/>
      <point x="433" y="198"/>
      <point x="433" y="238" type="curve" smooth="yes"/>
      <point x="433" y="707" type="line"/>
      <point x="568" y="707" type="line"/>
      <point x="568" y="233" type="line" smooth="yes"/>
      <point x="568" y="187"/>
      <point x="557" y="146"/>
      <point x="535" y="109" type="curve" smooth="yes"/>
      <point x="513" y="72"/>
      <point x="483" y="44"/>
      <point x="444" y="24" type="curve" smooth="yes"/>
      <point x="405" y="4"/>
      <point x="361" y="-6"/>
      <point x="313" y="-6" type="curve" smooth="yes"/>
      <point x="265" y="-6"/>
      <point x="223" y="4"/>
    </contour>
    <contour>
      <point x="267" y="920" type="line"/>
      <point x="360" y="920" type="line"/>
      <point x="478" y="765" type="line"/>
      <point x="379" y="765" type="line"/>
      <point x="314" y="845" type="line"/>
      <point x="250" y="765" type="line"/>
      <point x="150" y="765" type="line"/>
    </contour>
  </outline>
</glyph>
<glyph name="acircumflex" format="2">
  <advance width="513"/>
  <unicode hex="00E2"/>
  <anchor x="248" y="532" name="Anchor-0"/>
  <outline>
    <contour>
      <point x="403" y="491" type="curve" smooth="yes"/>
      <point x="439" y="459"/>
      <point x="458" y="412"/>
      <point x="458" y="350" type="curve" smooth="yes"/>
      <point x="458" y="-0" type="line"/>
      <point x="335" y="-0" type="line"/>
      <point x="335" y="46" type="line"/>
      <point x="317" y="28"/>
      <point x="299" y="14"/>
      <point x="280" y="6" type="curve" smooth="yes"/>
      <point x="261" y="-2"/>
      <point x="238" y="-6"/>
      <point x="209" y="-6" type="curve" smooth="yes"/>
      <point x="154" y="-6"/>
      <point x="112" y="9"/>
      <point x="82" y="38" type="curve" smooth="yes"/>
      <point x="52" y="67"/>
      <point x="37" y="108"/>
      <point x="37" y="160" type="curve" smooth="yes"/>
      <point x="37" y="208"/>
      <point x="53" y="245"/>
      <point x="85" y="273" type="curve" smooth="yes"/>
      <point x="117" y="301"/>
      <point x="162" y="314"/>
      <point x="219" y="314" type="curve" smooth="yes"/>
      <point x="332" y="314" type="line"/>
      <point x="332" y="356" type="line" smooth="yes"/>
      <point x="332" y="413"/>
      <point x="304" y="441"/>
      <point x="247" y="441" type="curve" smooth="yes"/>
      <point x="223" y="441"/>
      <point x="204" y="435"/>
      <point x="190" y="423" type="curve" smooth="yes"/>
      <point x="176" y="411"/>
      <point x="169" y="396"/>
      <point x="169" y="376" type="curve" smooth="yes"/>
      <point x="169" y="373" type="line"/>
      <point x="51" y="373" type="line"/>
      <point x="51" y="377" type="line" smooth="yes"/>
      <point x="51" y="427"/>
      <point x="69" y="466"/>
      <point x="104" y="495" type="curve" smooth="yes"/>
      <point x="139" y="524"/>
      <point x="188" y="539"/>
      <point x="248" y="539" type="curve" smooth="yes"/>
      <point x="316" y="539"/>
      <point x="367" y="523"/>
    </contour>
    <contour>
      <point x="310" y="119" type="curve" smooth="yes"/>
      <point x="325" y="134"/>
      <point x="332" y="158"/>
      <point x="332" y="189" type="curve" smooth="yes"/>
      <point x="332" y="227" type="line"/>
      <point x="240" y="227" type="line" smooth="yes"/>
      <point x="187" y="227"/>
      <point x="160" y="206"/>
      <point x="160" y="163" type="curve" smooth="yes"/>
      <point x="160" y="119"/>
      <point x="186" y="96"/>
      <point x="238" y="96" type="curve" smooth="yes"/>
      <point x="271" y="96"/>
      <point x="295" y="104"/>
    </contour>
    <contour>
      <point x="201" y="745" type="line"/>
      <point x="294" y="745" type="line"/>
      <point x="412" y="591" type="line"/>
      <point x="312" y="591" type="line"/>
      <point x="248" y="671" type="line"/>
      <point x="183" y="591" type="line"/>
      <point x="83" y="591" type="line"/>
    </contour>
  </outline>
</glyph>
<glyph name="igrave" format="2">
  <advance width="246"/>
  <unicode hex="00EC"/>
  <anchor x="123" y="532" name="Anchor-0"/>
  <outline>
    <contour>
      <point x="60" y="532" type="line"/>
      <point x="186" y="532" type="line"/>
      <point x="186" y="0" type="line"/>
      <point x="60" y="0" type="line"/>
    </contour>
    <contour>
      <point x="-40" y="738" type="line"/>
      <point x="100" y="738" type="line"/>
      <point x="211" y="602" type="line"/>
      <point x="101" y="602" type="line"/>
    </contour>
  </outline>
</glyph>
<glyph name="ntilde" format="2">
  <advance width="532"/>
  <unicode hex="00F1"/>
  <anchor x="266" y="532" name="Anchor-0"/>
  <outline>
    <contour>
      <point x="55" y="532" type="line"/>
      <point x="179" y="532" type="line"/>
      <point x="179" y="484" type="line"/>
      <point x="195" y="502"/>
      <point x="214" y="516"/>
      <point x="236" y="525" type="curve" smooth="yes"/>
      <point x="258" y="534"/>
      <point x="281" y="539"/>
      <point x="305" y="539" type="curve" smooth="yes"/>
      <point x="360" y="539"/>
      <point x="402" y="521"/>
      <point x="432" y="487" type="curve" smooth="yes"/>
      <point x="462" y="453"/>
      <point x="477" y="406"/>
      <point x="477" y="347" type="curve" smooth="yes"/>
      <point x="477" y="0" type="line"/>
      <point x="350" y="0" type="line"/>
      <point x="350" y="332" type="line" smooth="yes"/>
      <point x="350" y="362"/>
      <point x="343" y="385"/>
      <point x="328" y="401" type="curve" smooth="yes"/>
      <point x="313" y="417"/>
      <point x="292" y="426"/>
      <point x="267" y="426" type="curve" smooth="yes"/>
      <point x="242" y="426"/>
      <point x="222" y="417"/>
      <point x="206" y="401" type="curve" smooth="yes"/>
      <point x="190" y="385"/>
      <point x="182" y="362"/>
      <point x="182" y="332" type="curve" smooth="yes"/>
      <point x="182" y="0" type="line"/>
      <point x="55" y="0" type="line"/>
    </contour>
    <contour>
      <point x="121" y="688" type="line"/>
      <point x="137" y="704"/>
      <point x="150" y="715"/>
      <point x="162" y="722" type="curve" smooth="yes"/>
      <point x="174" y="729"/>
      <point x="188" y="732"/>
      <point x="204" y="732" type="curve" smooth="yes"/>
      <point x="218" y="732"/>
      <point x="230" y="730"/>
      <point x="240" y="727" type="curve" smooth="yes"/>
      <point x="250" y="724"/>
      <point x="262" y="719"/>
      <point x="276" y="711" type="curve" smooth="yes"/>
      <point x="298" y="699"/>
      <point x="317" y="693"/>
      <point x="333" y="693" type="curve" smooth="yes"/>
      <point x="347" y="693"/>
      <point x="359" y="696"/>
      <point x="369" y="701" type="curve" smooth="yes"/>
      <point x="379" y="706"/>
      <point x="393" y="718"/>
      <point x="411" y="734" type="curve"/>
      <point x="411" y="641" type="line"/>
      <point x="395" y="625"/>
      <point x="381" y="614"/>
      <point x="369" y="607" type="curve" smooth="yes"/>
      <point x="357" y="600"/>
      <point x="344" y="597"/>
      <point x="328" y="597" type="curve" smooth="yes"/>
      <point x="315" y="597"/>
      <point x="303" y="599"/>
      <point x="293" y="602" type="curve" smooth="yes"/>
      <point x="283" y="605"/>
      <point x="270" y="610"/>
      <point x="256" y="618" type="curve" smooth="yes"/>
      <point x="234" y="630"/>
      <point x="216" y="636"/>
      <point x="200" y="636" type="curve" smooth="yes"/>
      <point x="186" y="636"/>
      <point x="174" y="633"/>
      <point x="164" y="628" type="curve" smooth="yes"/>
      <point x="154" y="623"/>
      <point x="139" y="612"/>
      <point x="121" y="596" type="curve"/>
    </contour>
  </outline>
</glyph>
<glyph name="otilde" format="2">
  <advance width="522"/>
  <unicode hex="00F5"/>
  <anchor x="262" y="532" name="Anchor-0"/>
  <outline>
    <contour>
      <point x="104" y="48" type="curve" smooth="yes"/>
      <point x="65" y="84"/>
      <point x="46" y="141"/>
      <point x="46" y="217" type="curve" smooth="yes"/>
      <point x="46" y="316" type="line" smooth="yes"/>
      <point x="46" y="392"/>
      <point x="65" y="448"/>
      <point x="104" y="484" type="curve" smooth="yes"/>
      <point x="143" y="520"/>
      <point x="195" y="539"/>
      <point x="262" y="539" type="curve" smooth="yes"/>
      <point x="328" y="539"/>
      <point x="381" y="520"/>
      <point x="419" y="484" type="curve" smooth="yes"/>
      <point x="457" y="448"/>
      <point x="476" y="392"/>
      <point x="476" y="316" type="curve" smooth="yes"/>
      <point x="476" y="217" type="line" smooth="yes"/>
      <point x="476" y="141"/>
      <point x="457" y="84"/>
      <point x="419" y="48" type="curve" smooth="yes"/>
      <point x="381" y="12"/>
      <point x="328" y="-6"/>
      <point x="262" y="-6" type="curve" smooth="yes"/>
      <point x="195" y="-6"/>
      <point x="143" y="12"/>
    </contour>
    <contour>
      <point x="350" y="218" type="curve" smooth="yes"/>
      <point x="350" y="314" type="line" smooth="yes"/>
      <point x="350" y="388"/>
      <point x="321" y="426"/>
      <point x="262" y="426" type="curve" smooth="yes"/>
      <point x="202" y="426"/>
      <point x="172" y="388"/>
      <point x="172" y="314" type="curve" smooth="yes"/>
      <point x="172" y="218" type="line" smooth="yes"/>
      <point x="172" y="144"/>
      <point x="202" y="106"/>
      <point x="262" y="106" type="curve" smooth="yes"/>
      <point x="321" y="106"/>
      <point x="350" y="144"/>
    </contour>
    <contour>
      <point x="117" y="688" type="line"/>
      <point x="133" y="704"/>
      <point x="146" y="715"/>
      <point x="158" y="722" type="curve" smooth="yes"/>
      <point x="170" y="729"/>
      <point x="184" y="732"/>
      <point x="200" y="732" type="curve" smooth="yes"/>
      <point x="214" y="732"/>
      <point x="226" y="730"/>
      <point x="236" y="727" type="curve" smooth="yes"/>
      <point x="246" y="724"/>
      <point x="258" y="719"/>
      <point x="272" y="711" type="curve" smooth="yes"/>
      <point x="294" y="699"/>
      <point x="313" y="693"/>
      <point x="329" y="693" type="curve" smooth="yes"/>
      <point x="343" y="693"/>
      <point x="355" y="696"/>
      <point x="365" y="701" type="curve" smooth="yes"/>
      <point x="375" y="706"/>
      <point x="389" y="718"/>
      <point x="407" y="734" type="curve"/>
      <point x="407" y="641" type="line"/>
      <point x="391" y="625"/>
      <point x="377" y="614"/>
      <point x="365" y="607" type="curve" smooth="yes"/>
      <point x="353" y="600"/>
      <point x="340" y="597"/>
      <point x="324" y="597" type="curve" smooth="yes"/>
      <point x="311" y="597"/>
      <point x="299" y="599"/>
      <point x="289" y="602" type="curve" smooth="yes"/>
      <point x="279" y="605"/>
      <point x="266" y="610"/>
      <point x="252" y="618" type="curve" smooth="yes"/>
      <point x="230" y="630"/>
      <point x="212" y="636"/>
      <point x="196" y="636" type="curve" smooth="yes"/>
      <point x="182" y="636"/>
      <point x="170" y="633"/>
      <point x="160" y="628" type="curve" smooth="yes"/>
      <point x="150" y="623"/>
      <point x="135" y="612"/>
      <point x="117" y="596" type="curve"/>
    </contour>
  </outline>
</glyph>
<glyph name="udieresis" format="2">
  <advance width="532"/>
  <unicode hex="00FC"/>
  <anchor x="266" y="532" name="Anchor-0"/>
  <outline>
    <contour>
      <point x="55" y="215" type="curve" smooth="yes"/>
      <point x="55" y="532" type="line"/>
      <point x="182" y="532" type="line"/>
      <point x="182" y="221" type="line" smooth="yes"/>
      <point x="182" y="183"/>
      <point x="188" y="155"/>
      <point x="199" y="136" type="curve" smooth="yes"/>
      <point x="210" y="117"/>
      <point x="233" y="106"/>
      <point x="266" y="106" type="curve" smooth="yes"/>
      <point x="299" y="106"/>
      <point x="322" y="116"/>
      <point x="333" y="134" type="curve" smooth="yes"/>
      <point x="344" y="152"/>
      <point x="350" y="181"/>
      <point x="350" y="221" type="curve" smooth="yes"/>
      <point x="350" y="532" type="line"/>
      <point x="477" y="532" type="line"/>
      <point x="477" y="215" type="line" smooth="yes"/>
      <point x="477" y="141"/>
      <point x="460" y="86"/>
      <point x="425" y="49" type="curve" smooth="yes"/>
      <point x="390" y="12"/>
      <point x="337" y="-6"/>
      <point x="266" y="-6" type="curve" smooth="yes"/>
      <point x="125" y="-6"/>
      <point x="55" y="68"/>
    </contour>
    <contour>
      <point x="113" y="720" type="line"/>
      <point x="222" y="720" type="line"/>
      <point x="222" y="601" type="line"/>
      <point x="113" y="601" type="line"/>
    </contour>
    <contour>
      <point x="309" y="720" type="line"/>
      <point x="419" y="720" type="line"/>
      <point x="419" y="601" type="line"/>
      <point x="309" y="601" type="line"/>
    </contour>
  </outline>
</glyph>
<glyph name="ydieresis" format="2">
  <advance width="493"/>
  <unicode hex="00FF"/>
  <anchor x="247" y="532" name="Anchor-0"/>
  <outline>
    <contour>
      <point x="484" y="532" type="line"/>
      <point x="283" y="-46" type="line" smooth="yes"/>
      <point x="269" y="-85"/>
      <point x="250" y="-113"/>
      <point x="224" y="-131" type="curve" smooth="yes"/>
      <point x="198" y="-149"/>
      <point x="164" y="-158"/>
      <point x="122" y="-158" type="curve" smooth="yes"/>
      <point x="78" y="-158" type="line"/>
      <point x="78" y="-44" type="line"/>
      <point x="118" y="-44" type="line" smooth="yes"/>
      <point x="138" y="-44"/>
      <point x="153" y="-40"/>
      <point x="163" y="-33" type="curve" smooth="yes"/>
      <point x="173" y="-26"/>
      <point x="181" y="-13"/>
      <point x="187" y="7" type="curve" smooth="yes"/>
      <point x="189" y="14" type="line"/>
      <point x="9" y="532" type="line"/>
      <point x="143" y="532" type="line"/>
      <point x="248" y="198" type="line"/>
      <point x="354" y="532" type="line"/>
    </contour>
    <contour>
      <point x="93" y="720" type="line"/>
      <point x="203" y="720" type="line"/>
      <point x="203" y="601" type="line"/>
      <point x="93" y="601" type="line"/>
    </contour>
    <contour>
      <point x="290" y="720" type="line"/>
      <point x="399" y="720" type="line"/>
      <point x="399" y="601" type="line"/>
      <point x="290" y="601" type="line"/>
    </contour>
  </outline>
</glyph>
<glyph name="OE" format="2">
  <advance width="891"/>
  <unicode hex="0152"/>
  <outline>
    <contour>
      <point x="563" y="590" type="line"/>
      <point x="563" y="415" type="line"/>
      <point x="810" y="415" type="line"/>
      <point x="810" y="298" type="line"/>
      <point x="563" y="298" type="line"/>
      <point x="563" y="117" type="line"/>
      <point x="856" y="117" type="line"/>
      <point x="856" y="0" type="line"/>
      <point x="439" y="0" type="line"/>
      <point x="439" y="32" type="line"/>
      <point x="398" y="5"/>
      <point x="350" y="-8"/>
      <point x="295" y="-8" type="curve" smooth="yes"/>
      <point x="221" y="-8"/>
      <point x="162" y="14"/>
      <point x="118" y="58" type="curve" smooth="yes"/>
      <point x="74" y="102"/>
      <point x="51" y="174"/>
      <point x="51" y="273" type="curve" smooth="yes"/>
      <point x="51" y="435" type="line" smooth="yes"/>
      <point x="51" y="533"/>
      <point x="74" y="605"/>
      <point x="119" y="650" type="curve" smooth="yes"/>
      <point x="164" y="695"/>
      <point x="224" y="717"/>
      <point x="296" y="717" type="curve" smooth="yes"/>
      <point x="351" y="717"/>
      <point x="398" y="703"/>
      <point x="439" y="676" type="curve"/>
      <point x="439" y="707" type="line"/>
      <point x="856" y="707" type="line"/>
      <point x="856" y="590" type="line"/>
    </contour>
    <contour>
      <point x="429" y="428" type="line" smooth="yes"/>
      <point x="429" y="488"/>
      <point x="419" y="532"/>
      <point x="399" y="559" type="curve" smooth="yes"/>
      <point x="379" y="586"/>
      <point x="349" y="599"/>
      <point x="308" y="599" type="curve" smooth="yes"/>
      <point x="265" y="599"/>
      <point x="234" y="586"/>
      <point x="215" y="560" type="curve" smooth="yes"/>
      <point x="196" y="534"/>
      <point x="186" y="489"/>
      <point x="186" y="428" type="curve" smooth="yes"/>
      <point x="186" y="275" type="line" smooth="yes"/>
      <point x="186" y="217"/>
      <point x="196" y="176"/>
      <point x="215" y="150" type="curve" smooth="yes"/>
      <point x="234" y="124"/>
      <point x="265" y="112"/>
      <point x="308" y="112" type="curve" smooth="yes"/>
      <point x="349" y="112"/>
      <point x="379" y="125"/>
      <point x="399" y="151" type="curve" smooth="yes"/>
      <point x="419" y="177"/>
      <point x="429" y="218"/>
      <point x="429" y="275" type="curve" smooth="yes"/>
    </contour>
  </outline>
</glyph>
<glyph name="oe" format="2">
  <advance width="832"/>
  <unicode hex="0153"/>
  <outline>
    <contour>
      <point x="476" y="214" type="line" smooth="yes"/>
      <point x="476" y="174"/>
      <point x="485" y="146"/>
      <point x="502" y="129" type="curve" smooth="yes"/>
      <point x="519" y="112"/>
      <point x="545" y="103"/>
      <point x="578" y="103" type="curve" smooth="yes"/>
      <point x="603" y="103"/>
      <point x="621" y="108"/>
      <point x="636" y="119" type="curve" smooth="yes"/>
      <point x="651" y="130"/>
      <point x="660" y="145"/>
      <point x="662" y="164" type="curve" smooth="yes"/>
      <point x="662" y="167" type="line"/>
      <point x="782" y="167" type="line"/>
      <point x="782" y="162" type="line" smooth="yes"/>
      <point x="782" y="111"/>
      <point x="764" y="71"/>
      <point x="727" y="40" type="curve" smooth="yes"/>
      <point x="690" y="9"/>
      <point x="638" y="-6"/>
      <point x="572" y="-6" type="curve" smooth="yes"/>
      <point x="506" y="-6"/>
      <point x="455" y="11"/>
      <point x="417" y="46" type="curve"/>
      <point x="380" y="11"/>
      <point x="328" y="-6"/>
      <point x="262" y="-6" type="curve" smooth="yes"/>
      <point x="195" y="-6"/>
      <point x="143" y="12"/>
      <point x="104" y="48" type="curve" smooth="yes"/>
      <point x="65" y="84"/>
      <point x="46" y="141"/>
      <point x="46" y="217" type="curve" smooth="yes"/>
      <point x="46" y="316" type="line" smooth="yes"/>
      <point x="46" y="392"/>
      <point x="65" y="448"/>
      <point x="104" y="484" type="curve" smooth="yes"/>
      <point x="143" y="520"/>
      <point x="195" y="539"/>
      <point x="262" y="539" type="curve" smooth="yes"/>
      <point x="328" y="539"/>
      <point x="380" y="521"/>
      <point x="417" y="486" type="curve"/>
      <point x="455" y="521"/>
      <point x="506" y="539"/>
      <point x="569" y="539" type="curve" smooth="yes"/>
      <point x="635" y="539"/>
      <point x="689" y="518"/>
      <point x="728" y="478" type="curve" smooth="yes"/>
      <point x="767" y="438"/>
      <point x="786" y="378"/>
      <point x="786" y="299" type="curve" smooth="yes"/>
      <point x="786" y="228" type="line"/>
      <point x="476" y="228" type="line"/>
    </contour>
    <contour>
      <point x="476" y="315" type="line"/>
      <point x="660" y="315" type="line"/>
      <point x="660" y="329" type="line" smooth="yes"/>
      <point x="660" y="397"/>
      <point x="630" y="430"/>
      <point x="569" y="430" type="curve" smooth="yes"/>
      <point x="539" y="430"/>
      <point x="516" y="421"/>
      <point x="500" y="404" type="curve" smooth="yes"/>
      <point x="484" y="387"/>
      <point x="476" y="358"/>
      <point x="476" y="318" type="curve" smooth="yes"/>
    </contour>
    <contour>
      <point x="350" y="314" type="line" smooth="yes"/>
      <point x="350" y="388"/>
      <point x="321" y="426"/>
      <point x="262" y="426" type="curve" smooth="yes"/>
      <point x="202" y="426"/>
      <point x="172" y="388"/>
      <point x="172" y="314" type="curve" smooth="yes"/>
      <point x="172" y="218" type="line" smooth="yes"/>
      <point x="172" y="144"/>
      <point x="202" y="106"/>
      <point x="262" y="106" type="curve" smooth="yes"/>
      <point x="321" y="106"/>
      <point x="350" y="144"/>
      <point x="350" y="218" type="curve" smooth="yes"/>
    </contour>
  </outline>
</glyph>
<glyph name="perthousand" format="2">
  <advance width="1284"/>
  <unicode hex="2030"/>
  <outline>
    <contour>
      <point x="74" y="309" type="curve" smooth="yes"/>
      <point x="52" y="335"/>
      <point x="41" y="372"/>
      <point x="41" y="423" type="curve" smooth="yes"/>
      <point x="41" y="568" type="line" smooth="yes"/>
      <point x="41" y="616"/>
      <point x="52" y="652"/>
      <point x="76" y="676" type="curve" smooth="yes"/>
      <point x="100" y="700"/>
      <point x="134" y="713"/>
      <point x="179" y="713" type="curve" smooth="yes"/>
      <point x="226" y="713"/>
      <point x="261" y="701"/>
      <point x="283" y="677" type="curve" smooth="yes"/>
      <point x="305" y="653"/>
      <point x="316" y="616"/>
      <point x="316" y="568" type="curve" smooth="yes"/>
      <point x="316" y="423" type="line" smooth="yes"/>
      <point x="316" y="372"/>
      <point x="305" y="335"/>
      <point x="283" y="309" type="curve" smooth="yes"/>
      <point x="261" y="283"/>
      <point x="226" y="270"/>
      <point x="179" y="270" type="curve" smooth="yes"/>
      <point x="131" y="270"/>
      <point x="96" y="283"/>
    </contour>
    <contour>
      <point x="609" y="712" type="line"/>
      <point x="711" y="712" type="line"/>
      <point x="315" y="0" type="line"/>
      <point x="215" y="0" type="line"/>
    </contour>
    <contour>
      <point x="206" y="375" type="curve" smooth="yes"/>
      <point x="209" y="384"/>
      <point x="211" y="401"/>
      <point x="211" y="428" type="curve" smooth="yes"/>
      <point x="211" y="555" type="line" smooth="yes"/>
      <point x="211" y="581"/>
      <point x="209" y="598"/>
      <point x="205" y="608" type="curve" smooth="yes"/>
      <point x="201" y="618"/>
      <point x="193" y="623"/>
      <point x="179" y="623" type="curve" smooth="yes"/>
      <point x="165" y="623"/>
      <point x="157" y="618"/>
      <point x="153" y="608" type="curve" smooth="yes"/>
      <point x="149" y="598"/>
      <point x="146" y="581"/>
      <point x="146" y="555" type="curve" smooth="yes"/>
      <point x="146" y="428" type="line" smooth="yes"/>
      <point x="146" y="403"/>
      <point x="148" y="386"/>
      <point x="152" y="376" type="curve" smooth="yes"/>
      <point x="156" y="366"/>
      <point x="165" y="361"/>
      <point x="179" y="361" type="curve" smooth="yes"/>
      <point x="193" y="361"/>
      <point x="203" y="366"/>
    </contour>
    <contour>
      <point x="642" y="32" type="curve" smooth="yes"/>
      <point x="620" y="58"/>
      <point x="608" y="95"/>
      <point x="608" y="146" type="curve" smooth="yes"/>
      <point x="608" y="292" type="line" smooth="yes"/>
      <point x="608" y="340"/>
      <point x="620" y="376"/>
      <point x="644" y="400" type="curve" smooth="yes"/>
      <point x="668" y="424"/>
      <point x="701" y="436"/>
      <point x="746" y="436" type="curve" smooth="yes"/>
      <point x="793" y="436"/>
      <point x="828" y="424"/>
      <point x="850" y="400" type="curve" smooth="yes"/>
      <point x="872" y="376"/>
      <point x="884" y="340"/>
      <point x="884" y="292" type="curve" smooth="yes"/>
      <point x="884" y="146" type="line" smooth="yes"/>
      <point x="884" y="95"/>
      <point x="872" y="58"/>
      <point x="850" y="32" type="curve" smooth="yes"/>
      <point x="828" y="6"/>
      <point x="793" y="-6"/>
      <point x="746" y="-6" type="curve" smooth="yes"/>
      <point x="698" y="-6"/>
      <point x="664" y="6"/>
    </contour>
    <contour>
      <point x="1000" y="32" type="curve" smooth="yes"/>
      <point x="978" y="58"/>
      <point x="967" y="95"/>
      <point x="967" y="146" type="curve" smooth="yes"/>
      <point x="967" y="292" type="line" smooth="yes"/>
      <point x="967" y="340"/>
      <point x="978" y="376"/>
      <point x="1002" y="400" type="curve" smooth="yes"/>
      <point x="1026" y="424"/>
      <point x="1060" y="436"/>
      <point x="1105" y="436" type="curve" smooth="yes"/>
      <point x="1152" y="436"/>
      <point x="1187" y="424"/>
      <point x="1209" y="400" type="curve" smooth="yes"/>
      <point x="1231" y="376"/>
      <point x="1242" y="340"/>
      <point x="1242" y="292" type="curve" smooth="yes"/>
      <point x="1242" y="146" type="line" smooth="yes"/>
      <point x="1242" y="95"/>
      <point x="1231" y="58"/>
      <point x="1209" y="32" type="curve" smooth="yes"/>
      <point x="1187" y="6"/>
      <point x="1152" y="-6"/>
      <point x="1105" y="-6" type="curve" smooth="yes"/>
      <point x="1057" y="-6"/>
      <point x="1022" y="6"/>
    </contour>
    <contour>
      <point x="773" y="98" type="curve" smooth="yes"/>
      <point x="776" y="107"/>
      <point x="778" y="125"/>
      <point x="778" y="152" type="curve" smooth="yes"/>
      <point x="778" y="279" type="line" smooth="yes"/>
      <point x="778" y="305"/>
      <point x="777" y="322"/>
      <point x="773" y="332" type="curve" smooth="yes"/>
      <point x="769" y="342"/>
      <point x="760" y="346"/>
      <point x="746" y="346" type="curve" smooth="yes"/>
      <point x="732" y="346"/>
      <point x="724" y="342"/>
      <point x="720" y="332" type="curve" smooth="yes"/>
      <point x="716" y="322"/>
      <point x="714" y="305"/>
      <point x="714" y="279" type="curve" smooth="yes"/>
      <point x="714" y="152" type="line" smooth="yes"/>
      <point x="714" y="127"/>
      <point x="715" y="109"/>
      <point x="719" y="99" type="curve" smooth="yes"/>
      <point x="723" y="89"/>
      <point x="732" y="85"/>
      <point x="746" y="85" type="curve" smooth="yes"/>
      <point x="760" y="85"/>
      <point x="770" y="89"/>
    </contour>
    <contour>
      <point x="1132" y="98" type="curve" smooth="yes"/>
      <point x="1135" y="107"/>
      <point x="1137" y="125"/>
      <point x="1137" y="152" type="curve" smooth="yes"/>
      <point x="1137" y="279" type="line" smooth="yes"/>
      <point x="1137" y="305"/>
      <point x="1135" y="322"/>
      <point x="1131" y="332" type="curve" smooth="yes"/>
      <point x="1127" y="342"/>
      <point x="1119" y="346"/>
      <point x="1105" y="346" type="curve" smooth="yes"/>
      <point x="1091" y="346"/>
      <point x="1082" y="342"/>
      <point x="1078" y="332" type="curve" smooth="yes"/>
      <point x="1074" y="322"/>
      <point x="1072" y="305"/>
      <point x="1072" y="279" type="curve" smooth="yes"/>
      <point x="1072" y="152" type="line" smooth="yes"/>
      <point x="1072" y="127"/>
      <point x="1074" y="109"/>
      <point x="1078" y="99" type="curve" smooth="yes"/>
      <point x="1082" y="89"/>
      <point x="1091" y="85"/>
      <point x="1105" y="85" type="curve" smooth="yes"/>
      <point x="1119" y="85"/>
      <point x="1129" y="89"/>
    </contour>
  </outline>
</glyph>
<glyph name="fi" format="2">
  <advance width="588"/>
  <unicode hex="FB01"/>
  <outline>
    <contour>
      <point x="232" y="608" type="curve" smooth="yes"/>
      <point x="223" y="599"/>
      <point x="219" y="586"/>
      <point x="219" y="569" type="curve" smooth="yes"/>
      <point x="219" y="532" type="line"/>
      <point x="314" y="532" type="line"/>
      <point x="314" y="443" type="line"/>
      <point x="219" y="443" type="line"/>
      <point x="219" y="0" type="line"/>
      <point x="93" y="0" type="line"/>
      <point x="93" y="443" type="line"/>
      <point x="37" y="443" type="line"/>
      <point x="37" y="532" type="line"/>
      <point x="93" y="532" type="line"/>
      <point x="93" y="564" type="line" smooth="yes"/>
      <point x="93" y="609"/>
      <point x="106" y="644"/>
      <point x="132" y="669" type="curve" smooth="yes"/>
      <point x="158" y="694"/>
      <point x="194" y="707"/>
      <point x="241" y="707" type="curve" smooth="yes"/>
      <point x="314" y="707" type="line"/>
      <point x="314" y="621" type="line"/>
      <point x="272" y="621" type="line" smooth="yes"/>
      <point x="254" y="621"/>
      <point x="241" y="617"/>
    </contour>
    <contour>
      <point x="402" y="532" type="line"/>
      <point x="528" y="532" type="line"/>
      <point x="528" y="0" type="line"/>
      <point x="402" y="0" type="line"/>
    </contour>
    <contour>
      <point x="400" y="707" type="line"/>
      <point x="529" y="707" type="line"/>
      <point x="529" y="605" type="line"/>
      <point x="400" y="605" type="line"/>
    </contour>
  </outline>
</glyph>
<glyph name="two.dnom" format="2">
  <advance width="354"/>
  <outline>
    <contour>
      <point x="45" y="82" type="line"/>
      <point x="185" y="257" type="line" smooth="yes"/>
      <point x="199" y="274"/>
      <point x="206" y="290"/>
      <point x="206" y="305" type="curve" smooth="yes"/>
      <point x="206" y="312" type="line" smooth="yes"/>
      <point x="206" y="323"/>
      <point x="203" y="332"/>
      <point x="198" y="338" type="curve" smooth="yes"/>
      <point x="193" y="344"/>
      <point x="184" y="348"/>
      <point x="174" y="348" type="curve" smooth="yes"/>
      <point x="164" y="348"/>
      <point x="157" y="345"/>
      <point x="152" y="338" type="curve" smooth="yes"/>
      <point x="147" y="331"/>
      <point x="143" y="322"/>
      <point x="143" y="310" type="curve" smooth="yes"/>
      <point x="143" y="301" type="line"/>
      <point x="42" y="301" type="line"/>
      <point x="42" y="316" type="line" smooth="yes"/>
      <point x="42" y="351"/>
      <point x="54" y="381"/>
      <point x="79" y="403" type="curve" smooth="yes"/>
      <point x="104" y="425"/>
      <point x="137" y="436"/>
      <point x="179" y="436" type="curve" smooth="yes"/>
      <point x="219" y="436"/>
      <point x="251" y="424"/>
      <point x="276" y="401" type="curve" smooth="yes"/>
      <point x="301" y="378"/>
      <point x="313" y="350"/>
      <point x="313" y="317" type="curve" smooth="yes"/>
      <point x="313" y="306" type="line" smooth="yes"/>
      <point x="313" y="287"/>
      <point x="310" y="269"/>
      <point x="303" y="254" type="curve" smooth="yes"/>
      <point x="296" y="239"/>
      <point x="286" y="223"/>
      <point x="272" y="207" type="curve" smooth="yes"/>
      <point x="178" y="91" type="line"/>
      <point x="313" y="91" type="line"/>
      <point x="313" y="0" type="line"/>
      <point x="45" y="0" type="line"/>
    </contour>
  </outline>
</glyph>
<glyph name="zero.dnom" format="2">
  <advance width="358"/>
  <outline>
    <contour>
      <point x="74" y="31" type="curve" smooth="yes"/>
      <point x="52" y="57"/>
      <point x="41" y="94"/>
      <point x="41" y="145" type="curve" smooth="yes"/>
      <point x="41" y="291" type="line" smooth="yes"/>
      <point x="41" y="339"/>
      <point x="52" y="375"/>
      <point x="76" y="399" type="curve" smooth="yes"/>
      <point x="100" y="423"/>
      <point x="134" y="435"/>
      <point x="179" y="435" type="curve" smooth="yes"/>
      <point x="226" y="435"/>
      <point x="261" y="423"/>
      <point x="283" y="399" type="curve" smooth="yes"/>
      <point x="305" y="375"/>
      <point x="316" y="339"/>
      <point x="316" y="291" type="curve" smooth="yes"/>
      <point x="316" y="145" type="line" smooth="yes"/>
      <point x="316" y="94"/>
      <point x="305" y="57"/>
      <point x="283" y="31" type="curve" smooth="yes"/>
      <point x="261" y="5"/>
      <point x="226" y="-7"/>
      <point x="179" y="-7" type="curve" smooth="yes"/>
      <point x="131" y="-7"/>
      <point x="96" y="5"/>
    </contour>
    <contour>
      <point x="206" y="97" type="curve" smooth="yes"/>
      <point x="209" y="106"/>
      <point x="211" y="124"/>
      <point x="211" y="151" type="curve" smooth="yes"/>
      <point x="211" y="278" type="line" smooth="yes"/>
      <point x="211" y="304"/>
      <point x="209" y="321"/>
      <point x="205" y="331" type="curve" smooth="yes"/>
      <point x="201" y="341"/>
      <point x="193" y="345"/>
      <point x="179" y="345" type="curve" smooth="yes"/>
      <point x="165" y="345"/>
      <point x="157" y="341"/>
      <point x="153" y="331" type="curve" smooth="yes"/>
      <point x="149" y="321"/>
      <point x="146" y="304"/>
      <point x="146" y="278" type="curve" smooth="yes"/>
      <point x="146" y="151" type="line" smooth="yes"/>
      <point x="146" y="126"/>
      <point x="148" y="108"/>
      <point x="152" y="98" type="curve" smooth="yes"/>
      <point x="156" y="88"/>
      <point x="165" y="84"/>
      <point x="179" y="84" type="curve" smooth="yes"/>
      <point x="193" y="84"/>
      <point x="203" y="88"/>
    </contour>
  </outline>
</glyph>
